# xmcd
#
# Track frame offsets: 
#        150
#        15168
#        44630
#        63840
#        82837
#        95827
#        118504
#        136414
#        160491
#        176474
#        187477
#        215254
#
# Disc length: 3460 seconds
#
# Revision: 0
# Processed by: cddbd v1.5.2PL0 Copyright (c) Steve Scherf et al.
# Submitted via: ExactAudioCopyFreeDBPlugin 1.0
#
DISCID=a20d820c
DTITLE=Bluetones - From B to Mr. J
DYEAR=2003
DGENRE=Blues
TTITLE0=Jump and smile
TTITLE1=Black coffee first
TTITLE2=Like a yoyo
TTITLE3=Party time
TTITLE4=Goodnight sweet heart
TTITLE5=Waking with two different shoes
TTITLE6=Jive and swing
TTITLE7=No one like you
TTITLE8=Diamond little boy
TTITLE9=In the zoo
TTITLE10=Feel good
TTITLE11=My babe
EXTD=
EXTT0=
EXTT1=
EXTT2=
EXTT3=
EXTT4=
EXTT5=
EXTT6=
EXTT7=
EXTT8=
EXTT9=
EXTT10=
EXTT11=
PLAYORDER=
